<?xml version="1.0" encoding="UTF-8"?>
<svg width="180px" height="181px" viewBox="0 0 180 181" version="1.1" xmlns="http://www.w3.org/2000/svg" xmlns:xlink="http://www.w3.org/1999/xlink">
    <!-- Generator: Sketch 54.1 (76490) - https://sketchapp.com -->
    <title></title>
    <desc>Created with Sketch.</desc>
    <g id="Page-1" stroke="none" stroke-width="1" fill="none" fill-rule="evenodd">
        <g id="Profile-Copy-6" transform="translate(-630.000000, -140.000000)" fill="#FFFFFF" fill-rule="nonzero">
            <path d="M720,241.75 C710.859329,241.75 702.421914,239.464867 694.6875,234.894531 C686.953086,230.324196 680.800804,224.171914 676.230469,216.4375 C671.660133,208.703086 669.375,200.265671 669.375,191.125 C669.375,181.984329 671.660133,173.546914 676.230469,165.8125 C680.800804,158.078086 686.953086,151.925804 694.6875,147.355469 C702.421914,142.785133 710.859329,140.5 720,140.5 C729.140671,140.5 737.578086,142.785133 745.3125,147.355469 C753.046914,151.925804 759.199196,158.078086 763.769531,165.8125 C768.339867,173.546914 770.625,181.984329 770.625,191.125 C770.625,200.265671 768.339867,208.703086 763.769531,216.4375 C759.199196,224.171914 753.046914,230.324196 745.3125,234.894531 C737.578086,239.464867 729.140671,241.75 720,241.75 Z M765,253 C773.203166,253 780.761684,254.992168 787.675781,258.976562 C794.589878,262.960957 800.039043,268.410122 804.023438,275.324219 C808.007832,282.238316 810,289.796834 810,298 L810,303.625 C810,308.312523 808.359391,312.296859 805.078125,315.578125 C801.796859,318.859391 797.812523,320.5 793.125,320.5 L646.875,320.5 C642.187477,320.5 638.203141,318.859391 634.921875,315.578125 C631.640609,312.296859 630,308.312523 630,303.625 L630,298 C630,289.796834 631.992168,282.238316 635.976562,275.324219 C639.960957,268.410122 645.410122,262.960957 652.324219,258.976562 C659.238316,254.992168 666.796834,253 675,253 L694.335938,253 C702.539104,256.750019 711.093705,258.625 720,258.625 C728.906295,258.625 737.460896,256.750019 745.664062,253 L765,253 Z" id=""></path>
        </g>
    </g>
</svg>