<?xml version="1.0" encoding="UTF-8"?>
<svg width="96px" height="48px" viewBox="0 0 96 48" version="1.1" xmlns="http://www.w3.org/2000/svg" xmlns:xlink="http://www.w3.org/1999/xlink">
    <!-- Generator: Sketch 54.1 (76490) - https://sketchapp.com -->
    <title></title>
    <desc>Created with Sketch.</desc>
    <g id="Page-1" stroke="none" stroke-width="1" fill="none" fill-rule="evenodd">
        <g id="Profile-Copy-5" transform="translate(-658.000000, -845.000000)" fill="#FFFFFF" fill-rule="nonzero">
            <path d="M670.131889,891.351405 L658.57716,878.912007 C658.076953,878.312515 657.901883,877.563162 658.051945,876.663923 C658.202007,875.764685 658.677197,875.115245 659.477528,874.715584 L665.479985,871.718139 C666.280316,871.318477 667.080636,871.318477 667.880967,871.718139 L678.685389,877.11354 L694.291776,869.320183 L670.732134,854.632701 C670.131886,853.933294 669.931806,853.133983 670.131889,852.234745 C670.331971,851.335507 670.832171,850.686067 671.632503,850.286405 L681.386494,845.340621 C682.386909,844.841044 683.287268,844.891001 684.0876,845.490493 L716.951049,857.780019 L731.807129,850.286405 C736.108911,848.088268 740.410628,847.139086 744.71241,847.438832 C749.314316,847.738578 752.215475,849.112394 753.415972,851.56032 C754.616469,854.008246 753.96621,857.18051 751.465174,861.077208 C749.16422,864.674161 745.812882,867.571662 741.411059,869.769799 L697.743188,891.950894 C696.342608,892.650302 694.842009,893 693.241346,893 L673.733362,893 C672.232741,893 671.032262,892.450474 670.131889,891.351405 Z" id=""></path>
        </g>
    </g>
</svg>