<?xml version="1.0" encoding="UTF-8"?>
<svg width="36px" height="34px" viewBox="0 0 36 34" version="1.1" xmlns="http://www.w3.org/2000/svg" xmlns:xlink="http://www.w3.org/1999/xlink">
    <!-- Generator: Sketch 54.1 (76490) - https://sketchapp.com -->
    <title>Group 4</title>
    <desc>Created with Sketch.</desc>
    <g id="Page-1" stroke="none" stroke-width="1" fill="none" fill-rule="evenodd">
        <g id="Travel-Group-2-Copy-5" transform="translate(-121.000000, -513.000000)" fill="#3431A0" fill-rule="nonzero">
            <g id="Group-4" transform="translate(121.000000, 513.000000)">
                <path d="M0.52702913,17.0315918 L10.8395291,32.0529251 C11.777279,33.4188648 13.6447883,33.7659813 15.010728,32.8282314 C16.3766677,31.8904816 16.7237842,30.0229722 15.7860343,28.6570325 L5.47353431,13.6356992 C4.53578446,12.2697595 2.66827511,11.9226431 1.30233542,12.8603929 C-0.0636042665,13.7981428 -0.410720717,15.6656521 0.52702913,17.0315918 Z" id="Line-7"></path>
                <path d="M16.4879441,32.0093602 L34.8093727,4.67043334 C35.7317551,3.2940698 35.3637307,1.43056797 33.9873672,0.508185515 C32.6110036,-0.414196939 30.7475018,-0.0461725482 29.8251193,1.330191 L11.5036908,28.6691178 C10.5813083,30.0454814 10.9493327,31.9089832 12.3256963,32.8313657 C13.7020598,33.7537481 15.5655616,33.3857237 16.4879441,32.0093602 Z" id="Line-3"></path>
            </g>
        </g>
    </g>
</svg>