<?xml version="1.0" encoding="UTF-8"?>
<svg width="27px" height="27px" viewBox="0 0 27 27" version="1.1" xmlns="http://www.w3.org/2000/svg" xmlns:xlink="http://www.w3.org/1999/xlink">
    <!-- Generator: Sketch 54.1 (76490) - https://sketchapp.com -->
    <title>Group</title>
    <desc>Created with Sketch.</desc>
    <g id="Page-1" stroke="none" stroke-width="1" fill="none" fill-rule="evenodd">
        <g id="Group" transform="translate(1.000000, 1.000000)">
            <circle id="Oval" stroke="#A45454" fill="#643636" cx="12.5" cy="12.5" r="12.5"></circle>
            <path d="M12.5,21.0298165 C11.6715729,21.0298165 11,20.3582436 11,19.5298165 C11,18.7013893 11.6715729,18.0298165 12.5,18.0298165 C13.3284271,18.0298165 14,18.7013893 14,19.5298165 C14,20.3582436 13.3284271,21.0298165 12.5,21.0298165 Z M12.6905514,17.0294052 C12.1180154,17.0602849 11.4950796,15.352306 10.821744,11.9054686 C9.81174053,6.73521258 9.83481708,5.24977701 10.3430569,4.43625057 C11.2367033,3.00581383 13.1207449,2.57065926 14.5511816,3.46430562 C15.5064394,4.06109023 16.0556563,5.13523495 15.9801539,6.25905372 C15.8431676,8.29817507 15.5322448,10.2397135 15.0473953,12.0836697 C14.1804412,15.3808267 13.3948266,17.0294052 12.6905514,17.0294052 Z" id="!" fill="#FFFFFF" fill-rule="nonzero"></path>
        </g>
    </g>
</svg>