<?xml version="1.0" encoding="UTF-8"?>
<svg width="28px" height="18px" viewBox="0 0 28 18" version="1.1" xmlns="http://www.w3.org/2000/svg" xmlns:xlink="http://www.w3.org/1999/xlink">
    <!-- Generator: Sketch 54.1 (76490) - https://sketchapp.com -->
    <title></title>
    <desc>Created with Sketch.</desc>
    <g id="Page-1" stroke="none" stroke-width="1" fill="none" fill-rule="evenodd">
        <g id="Profile-Copy-13" transform="translate(-1156.000000, -678.000000)" fill="#FFFFFF" fill-rule="nonzero">
            <path d="M1177.8125,688.0625 L1165.6875,700.1875 C1165.39583,700.479168 1165.04167,700.625 1164.625,700.625 C1164.20833,700.625 1163.85417,700.479168 1163.5625,700.1875 L1162.1875,698.8125 C1161.89583,698.520832 1161.73958,698.166669 1161.71875,697.75 C1161.69792,697.333331 1161.83333,696.979168 1162.125,696.6875 L1171.8125,687 L1162.125,677.3125 C1161.83333,677.020832 1161.69792,676.666669 1161.71875,676.25 C1161.73958,675.833331 1161.89583,675.479168 1162.1875,675.1875 L1163.5625,673.8125 C1163.85417,673.520832 1164.20833,673.375 1164.625,673.375 C1165.04167,673.375 1165.39583,673.520832 1165.6875,673.8125 L1177.8125,685.9375 C1178.14584,686.229168 1178.3125,686.583331 1178.3125,687 C1178.3125,687.416669 1178.14584,687.770832 1177.8125,688.0625 Z" id="" transform="translate(1170.014583, 687.000000) scale(-1, 1) rotate(90.000000) translate(-1170.014583, -687.000000) "></path>
        </g>
    </g>
</svg>