<?xml version="1.0" encoding="UTF-8"?>
<svg width="96px" height="84px" viewBox="0 0 96 84" version="1.1" xmlns="http://www.w3.org/2000/svg" xmlns:xlink="http://www.w3.org/1999/xlink">
    <!-- Generator: Sketch 54.1 (76490) - https://sketchapp.com -->
    <title></title>
    <desc>Created with Sketch.</desc>
    <g id="Page-1" stroke="none" stroke-width="1" fill="none" fill-rule="evenodd">
        <g id="Profile-Copy-8" transform="translate(-678.000000, -685.000000)" fill="#FFFFFF" fill-rule="nonzero">
            <path d="M756,688 L756,697 L738,697 L738,688 C738,687.124996 738.281247,686.406253 738.84375,685.84375 C739.406253,685.281247 740.124996,685 741,685 L753,685 C753.875004,685 754.593747,685.281247 755.15625,685.84375 C755.718753,686.406253 756,687.124996 756,688 Z M690,709 C690,707.374992 690.593744,705.968756 691.78125,704.78125 C692.968756,703.593744 694.374992,703 696,703 L714,703 L714,733 L708,733 L708,763 C708,764.625008 707.406256,766.031244 706.21875,767.21875 C705.031244,768.406256 703.625008,769 702,769 L684,769 C682.374992,769 680.968756,768.406256 679.78125,767.21875 C678.593744,766.031244 678,764.625008 678,763 L678,754.75 C678.125001,748.874971 678.937492,743.562524 680.4375,738.8125 C681.187504,735.937486 682.624989,732.312522 684.75,727.9375 C686.500009,724.187481 687.687497,721.31251 688.3125,719.3125 C689.312505,716.062484 689.874999,712.625018 690,709 Z M762,709 C762.125001,712.625018 762.687495,716.062484 763.6875,719.3125 C764.312503,721.31251 765.499991,724.187481 767.25,727.9375 C769.375011,732.312522 770.812496,735.937486 771.5625,738.8125 C773.062508,743.562524 773.874999,748.874971 774,754.75 L774,763 C774,764.625008 773.406256,766.031244 772.21875,767.21875 C771.031244,768.406256 769.625008,769 768,769 L750,769 C748.374992,769 746.968756,768.406256 745.78125,767.21875 C744.593744,766.031244 744,764.625008 744,763 L744,733 L738,733 L738,703 L756,703 C757.625008,703 759.031244,703.593744 760.21875,704.78125 C761.406256,705.968756 762,707.374992 762,709 Z M711,685 C711.875004,685 712.593747,685.281247 713.15625,685.84375 C713.718753,686.406253 714,687.124996 714,688 L714,697 L696,697 L696,688 C696,687.124996 696.281247,686.406253 696.84375,685.84375 C697.406253,685.281247 698.124996,685 699,685 L711,685 Z M720,733 L720,703 L732,703 L732,733 L720,733 Z" id=""></path>
        </g>
    </g>
</svg>