<?xml version="1.0" encoding="UTF-8"?>
<svg width="83px" height="70px" viewBox="0 0 83 70" version="1.1" xmlns="http://www.w3.org/2000/svg" xmlns:xlink="http://www.w3.org/1999/xlink">
    <!-- Generator: Sketch 54.1 (76490) - https://sketchapp.com -->
    <title></title>
    <desc>Created with Sketch.</desc>
    <g id="Page-1" stroke="none" stroke-width="1" fill="none" fill-rule="evenodd">
        <g id="Profile-Copy-5" transform="translate(-661.000000, -1118.000000)" fill="#FFFFFF" fill-rule="nonzero">
            <g id="accommodations-copy" transform="translate(638.000000, 1099.000000)">
                <path d="M56.6,36 C55.8416629,36 55.2187524,35.7500025 54.73125,35.25 C54.2437476,34.7499975 54,34.111115 54,33.3333333 L54,26.6666667 C54,25.888885 54.2437476,25.2500025 54.73125,24.75 C55.2187524,24.2499975 55.8416629,24 56.6,24 L103.4,24 C104.158337,24 104.781248,24.2499975 105.26875,24.75 C105.756252,25.2500025 106,25.888885 106,26.6666667 L106,33.3333333 C106,34.111115 105.756252,34.7499975 105.26875,35.25 C104.781248,35.7500025 104.158337,36 103.4,36 L56.6,36 Z M56.6,62 C55.8416629,62 55.2187524,61.7500025 54.73125,61.25 C54.2437476,60.7499975 54,60.111115 54,59.3333333 L54,52.6666667 C54,51.888885 54.2437476,51.2500025 54.73125,50.75 C55.2187524,50.2499975 55.8416629,50 56.6,50 L103.4,50 C104.158337,50 104.781248,50.2499975 105.26875,50.75 C105.756252,51.2500025 106,51.888885 106,52.6666667 L106,59.3333333 C106,60.111115 105.756252,60.7499975 105.26875,61.25 C104.781248,61.7500025 104.158337,62 103.4,62 L56.6,62 Z M56.6,88 C55.8416629,88 55.2187524,87.7500025 54.73125,87.25 C54.2437476,86.7499975 54,86.111115 54,85.3333333 L54,78.6666667 C54,77.888885 54.2437476,77.2500025 54.73125,76.75 C55.2187524,76.2499975 55.8416629,76 56.6,76 L103.4,76 C104.158337,76 104.781248,76.2499975 105.26875,76.75 C105.756252,77.2500025 106,77.888885 106,78.6666667 L106,85.3333333 C106,86.111115 105.756252,86.7499975 105.26875,87.25 C104.781248,87.7500025 104.158337,88 103.4,88 L56.6,88 Z M33.0824742,74 C35.2817979,74 37.1511951,74.7291594 38.6907216,76.1875 C40.2302482,77.6458406 41,79.4166563 41,81.5 C41,83.5833437 40.2302482,85.3541594 38.6907216,86.8125 C37.1511951,88.2708406 35.2817979,89 33.0824742,89 C30.8831505,89 28.9862623,88.2708406 27.3917526,86.8125 C25.7972429,85.3541594 25,83.5833437 25,81.5 C25,79.4166563 25.7972429,77.6458406 27.3917526,76.1875 C28.9862623,74.7291594 30.8831505,74 33.0824742,74 Z M48.35,25.0703125 L48.5125,25.0703125 L36.65,36.8828125 L34.2125,39.5078125 C33.7791645,39.8359391 33.2916694,40 32.75,40 C32.2083306,40 31.7208355,39.8359391 31.2875,39.5078125 L23.65,31.6328125 C23.2166645,31.3046859 23,30.8671902 23,30.3203125 C23,29.7734348 23.1624984,29.2812522 23.4875,28.84375 L26.0875,26.3828125 C26.5208355,25.9453103 27.0083306,25.7265625 27.55,25.7265625 C28.0916694,25.7265625 28.5249984,25.9453103 28.85,26.3828125 L32.5875,29.9921875 L42.9875,19.4921875 C43.3125016,19.1640609 43.7458306,19 44.2875,19 C44.8291694,19 45.3166645,19.1640609 45.75,19.4921875 L48.5125,22.28125 C48.8375016,22.7187522 49,23.1835913 49,23.6757812 C49,24.1679712 48.7833355,24.6328103 48.35,25.0703125 Z M48.35,51.1860465 L48.5125,51.1860465 L36.65,62.9069767 L34.2125,65.3488372 C33.7791645,65.7829479 33.2916694,66 32.75,66 C32.2083306,66 31.7208355,65.7829479 31.2875,65.3488372 L23.65,57.6976744 C23.2166645,57.2635637 23,56.802328 23,56.3139535 C23,55.825579 23.1624984,55.3643433 23.4875,54.9302326 L26.0875,52.3255814 C26.5208355,51.9999984 27.0083306,51.8372093 27.55,51.8372093 C28.0916694,51.8372093 28.5249984,51.9999984 28.85,52.3255814 L32.5875,55.9069767 L42.9875,45.6511628 C43.3125016,45.2170521 43.7458306,45 44.2875,45 C44.8291694,45 45.3166645,45.2170521 45.75,45.6511628 L48.5125,48.4186047 C48.8375016,48.7441877 49,49.1782919 49,49.7209302 C49,50.2635686 48.7833355,50.7519358 48.35,51.1860465 Z" id=""></path>
            </g>
        </g>
    </g>
</svg>