<?xml version="1.0" encoding="UTF-8"?>
<svg width="67px" height="82px" viewBox="0 0 67 82" version="1.1" xmlns="http://www.w3.org/2000/svg" xmlns:xlink="http://www.w3.org/1999/xlink">
    <!-- Generator: Sketch 54.1 (76490) - https://sketchapp.com -->
    <title></title>
    <desc>Created with Sketch.</desc>
    <g id="Page-1" stroke="none" stroke-width="1" fill="none" fill-rule="evenodd">
        <g id="Profile-Copy-8" transform="translate(-691.000000, -843.000000)" fill="#FFFFFF" fill-rule="nonzero">
            <path d="M724.428571,845.402345 C726.142866,855.545625 727,862.432275 727,866.062501 C727,870.119813 726.008938,873.616523 724.026786,876.552735 C722.044633,879.488948 719.339303,881.597651 715.910714,882.878907 L718,920.996094 C718.107143,922.063807 717.758933,922.998043 716.955357,923.798828 C716.151782,924.599613 715.214291,925 714.142857,925 L703.857143,925 C702.785709,925 701.848218,924.599613 701.044643,923.798828 C700.241067,922.998043 699.892857,922.063807 700,920.996094 L702.089286,882.878907 C698.660697,881.597651 695.955367,879.488948 693.973214,876.552735 C691.991062,873.616523 691,870.119813 691,866.062501 C691,862.432275 691.857134,855.545625 693.571429,845.402345 C693.785715,844.441403 694.482137,843.7474 695.660714,843.320314 C696.839292,842.893229 698.044637,842.893229 699.276786,843.320314 C700.508935,843.7474 701.178571,844.494788 701.285714,845.562502 L701.285714,868.144532 C701.392858,868.464846 701.821425,868.625001 702.571429,868.625001 C703.321432,868.625001 703.749999,868.518231 703.857143,868.304689 L705.142857,845.562502 C705.357144,844.494788 706.053566,843.7474 707.232143,843.320314 C708.41072,842.893229 709.58928,842.893229 710.767857,843.320314 C711.946434,843.7474 712.642856,844.494788 712.857143,845.562502 L714.142857,868.304689 C714.250001,868.518231 714.678568,868.625001 715.428571,868.625001 C716.178575,868.625001 716.607142,868.464846 716.714286,868.144532 L716.714286,845.562502 C716.821429,844.494788 717.491065,843.7474 718.723214,843.320314 C719.955363,842.893229 721.160708,842.893229 722.339286,843.320314 C723.517863,843.7474 724.214285,844.441403 724.428571,845.402345 Z M743.517703,891.207031 C737.551184,886.615862 733.917086,881.330759 732.6153,875.351562 C731.421996,870.226537 731.964398,865.048203 734.242524,859.816406 C736.303685,855.011695 739.25978,851.007829 743.110897,847.804688 C746.962014,844.601546 750.623232,843 754.094661,843 C755.179483,843 756.101568,843.373694 756.860943,844.121094 C757.620318,844.868493 758,845.776036 758,846.84375 L758,921.15625 C758,922.223964 757.620318,923.131507 756.860943,923.878906 C756.101568,924.626306 755.179483,925 754.094661,925 L744.982205,925 C743.788901,925 742.812576,924.572921 742.053201,923.71875 C741.293826,922.864579 740.968384,921.903651 741.076866,920.835938 L743.517703,891.207031 Z" id=""></path>
        </g>
    </g>
</svg>