<?xml version="1.0" encoding="UTF-8"?>
<svg width="18px" height="24px" viewBox="0 0 18 24" version="1.1" xmlns="http://www.w3.org/2000/svg" xmlns:xlink="http://www.w3.org/1999/xlink">
    <!-- Generator: Sketch 54.1 (76490) - https://sketchapp.com -->
    <title></title>
    <desc>Created with Sketch.</desc>
    <g id="Page-1" stroke="none" stroke-width="1" fill="none" fill-rule="evenodd">
        <g id="Profile-Copy-5" transform="translate(-298.000000, -597.000000)" fill="#15A09A" fill-rule="nonzero">
            <g id="Location" transform="translate(298.000000, 597.000000)">
                <path d="M8.0625,23.53125 C7.24999594,22.3437441 6.20313141,20.8437591 4.921875,19.03125 C3.35936719,16.7812387 2.3281275,15.2656289 1.828125,14.484375 C1.10937141,13.3593694 0.62500125,12.4140663 0.375,11.6484375 C0.12499875,10.8828087 0,10 0,9 C0,7.37499187 0.406245938,5.87500687 1.21875,4.5 C2.03125406,3.12499313 3.12499313,2.03125406 4.5,1.21875 C5.87500688,0.406245938 7.37499188,0 9,0 C10.6250081,0 12.1249931,0.406245938 13.5,1.21875 C14.8750069,2.03125406 15.9687459,3.12499313 16.78125,4.5 C17.5937541,5.87500687 18,7.37499187 18,9 C18,10 17.8750013,10.8828087 17.625,11.6484375 C17.3749987,12.4140663 16.8906286,13.3593694 16.171875,14.484375 C15.6718725,15.2656289 14.6406328,16.7812387 13.078125,19.03125 L9.9375,23.53125 C9.71874891,23.8437516 9.40625203,24 9,24 C8.59374797,24 8.28125109,23.8437516 8.0625,23.53125 Z M9,12.75 C10.0312552,12.75 10.9140588,12.3828162 11.6484375,11.6484375 C12.3828162,10.9140588 12.75,10.0312552 12.75,9 C12.75,7.96874484 12.3828162,7.08594117 11.6484375,6.3515625 C10.9140588,5.61718383 10.0312552,5.25 9,5.25 C7.96874484,5.25 7.08594117,5.61718383 6.3515625,6.3515625 C5.61718383,7.08594117 5.25,7.96874484 5.25,9 C5.25,10.0312552 5.61718383,10.9140588 6.3515625,11.6484375 C7.08594117,12.3828162 7.96874484,12.75 9,12.75 Z" id=""></path>
            </g>
        </g>
    </g>
</svg>