<?xml version="1.0" encoding="UTF-8"?>
<svg width="18px" height="28px" viewBox="0 0 18 28" version="1.1" xmlns="http://www.w3.org/2000/svg" xmlns:xlink="http://www.w3.org/1999/xlink">
    <!-- Generator: Sketch 54.1 (76490) - https://sketchapp.com -->
    <title></title>
    <desc>Created with Sketch.</desc>
    <g id="Page-1" stroke="none" stroke-width="1" fill="none" fill-rule="evenodd">
        <g id="Profile-Copy-5" transform="translate(-1194.000000, -995.000000)" fill="#15A09A" fill-rule="nonzero">
            <g id="accommodations" transform="translate(638.000000, 956.000000)">
                <path d="M572.8125,54.0625 L560.6875,66.1875 C560.395832,66.4791681 560.041669,66.625 559.625,66.625 C559.208331,66.625 558.854168,66.4791681 558.5625,66.1875 L557.1875,64.8125 C556.895832,64.5208319 556.739583,64.1666687 556.71875,63.75 C556.697917,63.3333313 556.833332,62.9791681 557.125,62.6875 L566.8125,53 L557.125,43.3125 C556.833332,43.0208319 556.697917,42.6666687 556.71875,42.25 C556.739583,41.8333313 556.895832,41.4791681 557.1875,41.1875 L558.5625,39.8125 C558.854168,39.5208319 559.208331,39.375 559.625,39.375 C560.041669,39.375 560.395832,39.5208319 560.6875,39.8125 L572.8125,51.9375 C573.145835,52.2291681 573.3125,52.5833313 573.3125,53 C573.3125,53.4166687 573.145835,53.7708319 572.8125,54.0625 Z" id=""></path>
            </g>
        </g>
    </g>
</svg>