<?xml version="1.0" encoding="UTF-8"?>
<svg width="87px" height="61px" viewBox="0 0 87 61" version="1.1" xmlns="http://www.w3.org/2000/svg" xmlns:xlink="http://www.w3.org/1999/xlink">
    <!-- Generator: Sketch 54.1 (76490) - https://sketchapp.com -->
    <title></title>
    <desc>Created with Sketch.</desc>
    <g id="Page-1" stroke="none" stroke-width="1" fill="none" fill-rule="evenodd">
        <g id="Profile-Copy-5" transform="translate(-660.000000, -695.000000)" fill="#FFFFFF" fill-rule="nonzero">
            <g id="travel-groups" transform="translate(636.000000, 670.000000)">
                <path d="M37.5,51 C35.1979052,51 33.2057376,50.1588626 31.5234375,48.4765625 C29.8411374,46.7942624 29,44.8020948 29,42.5 C29,40.1979052 29.8411374,38.2057376 31.5234375,36.5234375 C33.2057376,34.8411374 35.1979052,34 37.5,34 C39.8020948,34 41.7942624,34.8411374 43.4765625,36.5234375 C45.1588626,38.2057376 46,40.1979052 46,42.5 C46,44.8020948 45.1588626,46.7942624 43.4765625,48.4765625 C41.7942624,50.1588626 39.8020948,51 37.5,51 Z M97.5,51 C95.1979052,51 93.2057376,50.1588626 91.5234375,48.4765625 C89.8411374,46.7942624 89,44.8020948 89,42.5 C89,40.1979052 89.8411374,38.2057376 91.5234375,36.5234375 C93.2057376,34.8411374 95.1979052,34 97.5,34 C99.8020948,34 101.794262,34.8411374 103.476562,36.5234375 C105.158863,38.2057376 106,40.1979052 106,42.5 C106,44.8020948 105.158863,46.7942624 103.476562,48.4765625 C101.794262,50.1588626 99.8020948,51 97.5,51 Z M102.121387,56 C104.526024,56 106.606928,56.8411374 108.364162,58.5234375 C110.121396,60.2057376 111,62.1979052 111,64.5 L111,68.75 C111,69.9010474 110.560698,70.8971312 109.682081,71.7382812 C108.803464,72.5794313 107.763012,73 106.560694,73 L97.4046243,73 C96.9421942,69.9010262 95.7861364,67.0677212 93.9364162,64.5 C92.086696,61.9322788 89.7745803,59.9401113 87,58.5234375 C88.7572342,56.8411374 90.8381383,56 93.2427746,56 L102.121387,56 Z M68,56 C65.3214152,56 62.8214402,55.3080426 60.5,53.9241071 C58.1785598,52.5401717 56.348221,50.6488215 55.0089286,48.25 C53.6696362,45.8511785 53,43.267871 53,40.5 C53,37.732129 53.6696362,35.1488215 55.0089286,32.75 C56.348221,30.3511785 58.1785598,28.4598283 60.5,27.0758929 C62.8214402,25.6919574 65.3214152,25 68,25 C70.6785848,25 73.1785598,25.6919574 75.5,27.0758929 C77.8214402,28.4598283 79.651779,30.3511785 80.9910714,32.75 C82.3303638,35.1488215 83,37.732129 83,40.5 C83,43.267871 82.3303638,45.8511785 80.9910714,48.25 C79.651779,50.6488215 77.8214402,52.5401717 75.5,53.9241071 C73.1785598,55.3080426 70.6785848,56 68,56 Z M78.4270833,60 C81.2257084,60 83.8211686,60.6996458 86.2135417,62.0989583 C88.6059147,63.4982709 90.5017291,65.3940853 91.9010417,67.7864583 C93.3003542,70.1788314 94,72.7742916 94,75.5729167 L94,79.5 C94,81.3055646 93.3680619,82.8402715 92.1041667,84.1041667 C90.8402715,85.3680619 89.3055646,86 87.5,86 L48.5,86 C46.6944354,86 45.1597285,85.3680619 43.8958333,84.1041667 C42.6319381,82.8402715 42,81.3055646 42,79.5 L42,75.5729167 C42,72.7742916 42.6996458,70.1788314 44.0989583,67.7864583 C45.4982709,65.3940853 47.3940853,63.4982709 49.7864583,62.0989583 C52.1788314,60.6996458 54.7742916,60 57.5729167,60 L58.65625,60 C61.7257098,61.4444517 64.840262,62.1666667 68,62.1666667 C71.159738,62.1666667 74.2742902,61.4444517 77.34375,60 L78.4270833,60 Z M48,58.5234375 C45.2254197,59.9401113 42.913304,61.9322788 41.0635838,64.5 C39.2138636,67.0677212 38.0578058,69.9010262 37.5953757,73 L28.4393064,73 C27.2369882,73 26.1965362,72.5794313 25.3179191,71.7382812 C24.439302,70.8971312 24,69.9010474 24,68.75 L24,64.5 C24,62.1979052 24.8786039,60.2057376 26.6358382,58.5234375 C28.3930724,56.8411374 30.4739764,56 32.8786127,56 L41.7572254,56 C44.1618617,56 46.2427658,56.8411374 48,58.5234375 Z" id=""></path>
            </g>
        </g>
    </g>
</svg>